<svg version="1.0" xmlns="http://www.w3.org/2000/svg"
 width="90.000000pt" height="90.000000pt" viewBox="0 0 90.000000 90.000000"
 preserveAspectRatio="xMidYMid meet">

<g transform="translate(0.000000,90.000000) scale(0.100000,-0.100000)"
fill="#fff" stroke="none">
<path d="M0 450 l0 -450 450 0 450 0 0 450 0 450 -450 0 -450 0 0 -450z m386
3 c62 -151 63 -153 39 -153 -20 0 -27 9 -42 50 l-18 51 -64 -3 -63 -3 -17 -45
c-12 -34 -22 -46 -40 -48 -20 -3 -23 0 -17 15 4 10 30 76 57 147 59 153 56
148 82 144 16 -2 33 -34 83 -155z m126 86 l3 -72 76 72 c56 52 84 71 104 71
26 0 23 -4 -39 -62 l-66 -63 65 -88 c36 -48 65 -89 65 -92 0 -3 -11 -5 -24 -5
-19 0 -36 16 -77 75 -28 41 -54 75 -57 75 -3 0 -16 -10 -29 -22 -18 -17 -23
-32 -23 -75 0 -46 -3 -53 -20 -53 -19 0 -20 7 -20 155 0 147 1 155 20 155 17
0 19 -8 22 -71z"/>
<path d="M287 538 c-2 -13 -12 -40 -21 -60 l-16 -38 50 0 c27 0 50 2 50 4 0 7
-51 116 -55 116 -1 0 -5 -10 -8 -22z"/>
</g>
</svg>